<svg width="16" height="16" viewBox="0 0 16 16" fill="none" xmlns="http://www.w3.org/2000/svg">
<path d="M14.1643 15.0295C12.5233 12.5295 10.4953 11.7445 8.00033 11.5455V12.9825C8.00033 13.5165 7.79233 14.0185 7.41433 14.3965C6.65833 15.1525 5.33733 15.1475 4.59133 14.4015L-1.70167 8.1945C-1.79616 8.10145 -1.87119 7.99054 -1.92241 7.86822C-1.97362 7.7459 -2 7.61461 -2 7.482C-2 7.34939 -1.97362 7.2181 -1.92241 7.09578C-1.87119 6.97346 -1.79616 6.86255 -1.70167 6.7695L4.58633 0.5665C5.34033 -0.1885 6.65933 -0.1895 7.41533 0.5675C7.79233 0.9455 8.00033 1.4475 8.00033 1.9815V3.6855C12.6193 4.6185 16.0003 8.6825 16.0003 13.4815V14.4815C16.0009 14.697 15.9317 14.907 15.8032 15.08C15.6746 15.253 15.4936 15.3798 15.2871 15.4414C15.0805 15.503 14.8596 15.4962 14.6572 15.422C14.4549 15.3478 14.282 15.2101 14.1643 15.0295V15.0295ZM7.02333 9.4935C9.23033 9.5495 11.6613 9.8875 13.7813 11.6145C13.3987 10.0144 12.5312 8.57158 11.2973 7.48329C10.0635 6.395 8.52366 5.71438 6.88833 5.5345C6.38433 5.4785 6.00033 5.4825 6.00033 5.4825V1.9855L0.424328 7.4815L6.00033 12.9815V9.4825L7.02333 9.4935V9.4935Z" fill="white"/>
</svg>
