<svg width="20" height="20" viewBox="0 0 20 20" fill="none" xmlns="http://www.w3.org/2000/svg">
<path d="M11.82 20H8.18C7.95193 20 7.7307 19.9221 7.553 19.7792C7.3753 19.6362 7.25181 19.4368 7.203 19.214L6.796 17.33C6.25306 17.0921 5.73823 16.7946 5.261 16.443L3.424 17.028C3.20656 17.0973 2.97195 17.0902 2.75912 17.0078C2.54629 16.9254 2.36805 16.7727 2.254 16.575L0.429999 13.424C0.317144 13.2261 0.274781 12.9958 0.309841 12.7708C0.344901 12.5457 0.455308 12.3392 0.622999 12.185L2.048 10.885C1.9832 10.2961 1.9832 9.70189 2.048 9.113L0.622999 7.816C0.45507 7.66177 0.344513 7.45507 0.309448 7.22978C0.274382 7.00449 0.316888 6.77397 0.429999 6.576L2.25 3.423C2.36405 3.22532 2.54229 3.07259 2.75512 2.99019C2.96795 2.90778 3.20256 2.90066 3.42 2.97L5.257 3.555C5.501 3.375 5.755 3.207 6.017 3.055C6.27 2.913 6.53 2.784 6.796 2.669L7.204 0.787C7.25257 0.564198 7.37583 0.364688 7.55335 0.221549C7.73086 0.0784098 7.95196 0.000239966 8.18 0H11.82C12.048 0.000239966 12.2691 0.0784098 12.4467 0.221549C12.6242 0.364688 12.7474 0.564198 12.796 0.787L13.208 2.67C13.488 2.794 13.762 2.933 14.027 3.088C14.274 3.231 14.513 3.388 14.743 3.557L16.581 2.972C16.7983 2.90292 17.0327 2.91017 17.2453 2.99256C17.4579 3.07495 17.636 3.22753 17.75 3.425L19.57 6.578C19.802 6.985 19.722 7.5 19.377 7.817L17.952 9.117C18.0168 9.70589 18.0168 10.3001 17.952 10.889L19.377 12.189C19.722 12.507 19.802 13.021 19.57 13.428L17.75 16.581C17.6359 16.7787 17.4577 16.9314 17.2449 17.0138C17.032 17.0962 16.7974 17.1033 16.58 17.034L14.743 16.449C14.2661 16.8003 13.7516 17.0975 13.209 17.335L12.796 19.214C12.7472 19.4366 12.6239 19.6359 12.4464 19.7788C12.2689 19.9218 12.0479 19.9998 11.82 20ZM9.996 6C8.93513 6 7.91772 6.42143 7.16757 7.17157C6.41743 7.92172 5.996 8.93913 5.996 10C5.996 11.0609 6.41743 12.0783 7.16757 12.8284C7.91772 13.5786 8.93513 14 9.996 14C11.0569 14 12.0743 13.5786 12.8244 12.8284C13.5746 12.0783 13.996 11.0609 13.996 10C13.996 8.93913 13.5746 7.92172 12.8244 7.17157C12.0743 6.42143 11.0569 6 9.996 6Z" fill="white"/>
</svg>
