<svg width="52" height="52" viewBox="0 0 52 52" fill="none" xmlns="http://www.w3.org/2000/svg">
<g clip-path="url(#clip0)">
<path d="M40.3202 20.3125C40.8811 20.3125 41.3358 19.8578 41.3358 19.2969C41.3358 18.736 40.8811 18.2812 40.3202 18.2812C39.7593 18.2812 39.3046 18.736 39.3046 19.2969C39.3046 19.8578 39.7593 20.3125 40.3202 20.3125Z" fill="white"/>
<path d="M11.6797 20.3125C12.2406 20.3125 12.6953 19.8578 12.6953 19.2969C12.6953 18.736 12.2406 18.2812 11.6797 18.2812C11.1188 18.2812 10.6641 18.736 10.6641 19.2969C10.6641 19.8578 11.1188 20.3125 11.6797 20.3125Z" fill="white"/>
<path d="M17.8751 21.3284C18.436 21.3284 18.8907 20.8737 18.8907 20.3127C18.8907 19.7518 18.436 19.2971 17.8751 19.2971C17.3142 19.2971 16.8595 19.7518 16.8595 20.3127C16.8595 20.8737 17.3142 21.3284 17.8751 21.3284Z" fill="white"/>
<path d="M46.5155 21.3284C47.0764 21.3284 47.5311 20.8737 47.5311 20.3127C47.5311 19.7518 47.0764 19.2971 46.5155 19.2971C45.9546 19.2971 45.4999 19.7518 45.4999 20.3127C45.4999 20.8737 45.9546 21.3284 46.5155 21.3284Z" fill="white"/>
<path d="M20.2021 17.5933C20.5189 18.0551 21.1508 18.1743 21.6141 17.8565C21.9905 17.5984 22.3887 17.3638 22.7979 17.1593C23.2421 16.9371 23.4606 16.4263 23.3143 15.9517C23.2811 15.8441 23.7005 17.205 20.0475 5.35268C20.0472 5.35177 20.0468 5.35095 20.0466 5.35004C20.0464 5.34933 20.0463 5.34862 20.0461 5.34791C19.0769 2.19969 15.6365 0.000976562 11.6797 0.000976562C7.72298 0.000976562 4.28257 2.19969 3.31326 5.34791C3.31306 5.34862 3.31296 5.34933 3.31276 5.35004C3.31245 5.35095 3.31205 5.35177 3.31184 5.35268L0.0451033 15.9517C-0.101247 16.4263 0.117212 16.9371 0.561444 17.1593C3.97392 18.8655 6.09372 22.2966 6.09372 26.1136V46.4148C6.09372 49.4948 8.59956 52.0007 11.6796 52.0007C14.7597 52.0007 17.2655 49.4948 17.2655 46.4148V26.1136C17.2655 25.6617 17.2964 25.2062 17.3573 24.7596C17.4332 24.2039 17.0441 23.6919 16.4883 23.616C15.9321 23.5403 15.4206 23.9293 15.3447 24.4851C15.2714 25.0224 15.2343 25.5702 15.2343 26.1136V29.3122C14.2678 28.513 13.0289 28.0321 11.6796 28.0321C10.3304 28.0321 9.09143 28.513 8.12496 29.3122V26.1136C8.12496 21.8572 5.87923 17.9228 2.23041 15.7576L3.92853 10.2488C5.46597 12.8335 8.62962 14.2196 11.6795 14.2196C14.7168 14.2196 17.8878 12.8425 19.4307 10.2486L21.1286 15.7577C20.9025 15.892 20.6808 16.0334 20.465 16.1813C20.0027 16.4986 19.8848 17.1307 20.2021 17.5933V17.5933ZM11.6796 49.9694C9.71959 49.9694 8.12496 48.3748 8.12496 46.4148V37.9237C9.09143 38.723 10.3304 39.2039 11.6796 39.2039C13.0289 39.2039 14.2678 38.723 15.2343 37.9237V46.4148C15.2343 48.3748 13.6397 49.9694 11.6796 49.9694V49.9694ZM11.6796 30.0633C13.6397 30.0633 15.2343 31.6579 15.2343 33.618C15.2343 35.578 13.6397 37.1726 11.6796 37.1726C9.71959 37.1726 8.12496 35.578 8.12496 33.618C8.12496 31.6579 9.71969 30.0633 11.6796 30.0633V30.0633ZM6.40796 10.1572C7.65016 8.88957 9.59741 8.12593 11.6796 8.12593C13.7619 8.12593 15.7091 8.88967 16.9513 10.1572C15.7091 11.4247 13.7619 12.1884 11.6796 12.1884C9.5973 12.1884 7.64996 11.4246 6.40796 10.1572V10.1572ZM18.2812 7.11031C18.2812 7.54997 18.2053 7.9873 18.0587 8.4102C16.4401 6.95715 14.1208 6.09469 11.6796 6.09469C9.23849 6.09469 6.91912 6.95715 5.30053 8.4102C5.15397 7.9873 5.0781 7.54997 5.0781 7.11031C5.0781 4.86996 7.8479 2.03221 11.6796 2.03221C15.0468 2.03221 18.2812 4.15587 18.2812 7.11031Z" fill="white"/>
<path d="M48.8427 17.5926C49.1594 18.0544 49.7913 18.1735 50.2546 17.8557C50.6311 17.5976 51.0293 17.363 51.4383 17.1585C51.8826 16.9364 52.101 16.4255 51.9547 15.9509C51.9512 15.9393 48.6818 5.33163 48.6866 5.34717C47.7172 2.19896 44.2768 0.000244141 40.3201 0.000244141C36.3633 0.000244141 32.9229 2.19896 31.9536 5.34717C31.9533 5.34809 31.9532 5.3491 31.9529 5.35002C31.9527 5.35083 31.9523 5.35164 31.952 5.35246L28.6854 15.9509C28.5392 16.4255 28.7576 16.9364 29.2019 17.1585C32.6144 18.8648 34.7342 22.2958 34.7342 26.1128V46.414C34.7342 49.4941 37.24 51.9999 40.3201 51.9999C43.4001 51.9999 45.906 49.4941 45.906 46.414V26.1128C45.906 25.6613 45.937 25.2057 45.9978 24.7589C46.0736 24.2032 45.6846 23.6912 45.1287 23.6153C44.5726 23.5398 44.0609 23.9285 43.9851 24.4844C43.9118 25.0218 43.8746 25.5697 43.8746 26.1128V29.3115C42.9082 28.5122 41.6692 28.0313 40.32 28.0313C38.9707 28.0313 37.7318 28.5122 36.7653 29.3115V26.1128C36.7653 21.8563 34.5196 17.9221 30.8709 15.7569L32.569 10.248C34.1094 12.8373 37.2758 14.2189 40.32 14.2189C43.4156 14.2189 46.5528 12.8006 48.0713 10.2477L49.7693 15.757C49.543 15.8912 49.3215 16.0327 49.1058 16.1806C48.6434 16.4979 48.5255 17.13 48.8427 17.5926V17.5926ZM40.3202 49.9687C38.3601 49.9687 36.7655 48.3741 36.7655 46.414V37.923C37.732 38.7222 38.9709 39.2031 40.3202 39.2031C41.6694 39.2031 42.9084 38.7222 43.8749 37.923V46.414C43.8749 48.3741 42.2802 49.9687 40.3202 49.9687ZM40.3202 30.0626C42.2802 30.0626 43.8749 31.6572 43.8749 33.6172C43.8749 35.5773 42.2802 37.1719 40.3202 37.1719C38.3601 37.1719 36.7655 35.5773 36.7655 33.6172C36.7655 31.6572 38.3602 30.0626 40.3202 30.0626ZM35.0485 10.1564C36.2906 8.88884 38.238 8.1252 40.3202 8.1252C42.4024 8.1252 44.3497 8.88894 45.5919 10.1564C44.3498 11.4239 42.4024 12.1877 40.3202 12.1877C38.2379 12.1877 36.2904 11.4238 35.0485 10.1564ZM46.9217 7.10958C46.9217 7.54924 46.8458 7.98656 46.6993 8.40947C45.0807 6.95642 42.7614 6.09396 40.3202 6.09396C37.8789 6.09396 35.5597 6.95642 33.9411 8.40947C33.7945 7.98656 33.7187 7.54914 33.7187 7.10958C33.7187 4.10913 37.0023 2.03148 40.3202 2.03148C43.7523 2.03148 46.9217 4.20247 46.9217 7.10958Z" fill="white"/>
</g>
<defs>
<clipPath id="clip0">
<rect width="52" height="52" fill="white"/>
</clipPath>
</defs>
</svg>
