<svg width="76" height="57" viewBox="0 0 76 57" fill="none" xmlns="http://www.w3.org/2000/svg">
<path d="M38 5.928C46.8208 5.928 54.7485 8.97275 60.0875 14.4495C64.4807 15.0208 68.6249 16.8148 72.048 19.627C66.0583 7.0395 53.6513 0 38 0C22.5625 0 10.07 7.03 4.00903 19.5795C7.14752 17.0179 10.8914 15.3054 14.8818 14.6063C20.121 8.892 28.3765 5.928 38 5.928Z" fill="white"/>
<path d="M57 57C52.0575 57.0057 47.3085 55.0796 43.7665 51.6325L43.757 51.623C43.3476 51.3154 42.9084 51.0497 42.446 50.8298C41.0539 50.1836 39.5347 49.8573 38 49.875C36.0335 49.875 34.5373 50.3643 33.5588 50.8298C33.0947 51.0494 32.6539 51.3151 32.243 51.623L32.2335 51.6325C30.0001 53.8007 27.2683 55.387 24.2781 56.2518C21.288 57.1167 18.1311 57.2337 15.0852 56.5925C12.0392 55.9514 9.19744 54.5717 6.8097 52.5747C4.42196 50.5778 2.56141 48.0249 1.39163 45.1403C0.221857 42.2558 -0.221308 39.128 0.101101 36.032C0.423511 32.936 1.50162 29.9667 3.24064 27.3851C4.97965 24.8034 7.3263 22.6886 10.0743 21.2265C12.8222 19.7644 15.8873 18.9998 19 19H57C62.0391 19 66.8719 21.0018 70.435 24.565C73.9982 28.1282 76 32.9609 76 38C76 43.0391 73.9982 47.8718 70.435 51.435C66.8719 54.9982 62.0391 57 57 57Z" fill="white"/>
</svg>
